<svg stroke-miterlimit="10" style="fill-rule:nonzero;clip-rule:evenodd;stroke-linecap:round;stroke-linejoin:round" viewBox="0 0 1024 1024" xml:space="preserve" xmlns="http://www.w3.org/2000/svg"><defs><linearGradient gradientTransform="matrix(.5 .5 -.5 .5 512 0)" gradientUnits="userSpaceOnUse" id="b" x1="136.02" x2="904.02" y1="136.02" y2="904.02"><stop offset="0" stop-color="#ff6767"/><stop offset="1" stop-color="#6f33ff"/></linearGradient></defs><clipPath id="a"><path d="M0 0h1024v1024H0z"/></clipPath><g clip-path="url(#a)" fill-rule="evenodd"><path d="m512 0-64 64-85.328 85.328-64 64-85.344 85.344-64 64L64 448 0 512l512 512 64-64-.281-.281 85.328-85.328.281.281 64-64-.281-.281 85.344-85.344.281.281 64-64-.281-.281 85.328-85.328.281.281 64-64-.28-.281-64.001-64-85.235-85.235-64-64-85.25-85.25-64-64L576 64 512 0Zm0 128 85.234 85.234-85.328 85.328-85.234-85.234L512 128Zm149.234 149.234 85.25 85.25-85.328 85.329-85.25-85.25 85.328-85.329Zm149.25 149.25 85.235 85.235-85.328 85.328-85.235-85.234 85.328-85.329ZM362.672 277.328l85.234 85.234-85.343 85.344-85.235-85.234 85.344-85.344Zm149.234 149.234 85.25 85.251-85.344 85.343-85.249-85.25 85.343-85.344Zm149.25 149.251 85.235 85.234-85.344 85.344-85.235-85.235 85.344-85.343ZM213.328 426.672l85.235 85.234-85.329 85.328L128 512l85.328-85.328Zm149.234 149.234 85.25 85.25-85.328 85.328-85.25-85.25 85.328-85.328Zm149.25 149.25 85.235 85.235-85.328 85.328-85.235-85.235 85.328-85.328Z" fill="url(#b)"/><path d="M512 0 0 512l32.063-.062L512 32l479.938 479.938L1024 512 512 0Z" fill="#fff" opacity=".8"/><path d="M512 1024 0 512l32.063.062L512 992l479.938-479.938L1024 512l-512 512Z" fill="#fff" opacity=".5"/></g></svg>